<svg width="808" height="706" viewBox="0 0 808 706" fill="none" xmlns="http://www.w3.org/2000/svg">
<path d="M389.932 602.879C331.077 607.061 272.615 590.54 224.735 556.195C176.854 521.851 142.591 471.861 127.917 414.937L175.212 402.842C187.043 448.736 214.667 489.04 253.27 516.729C291.873 544.419 339.007 557.739 386.457 554.367L389.932 602.879Z" fill="#6C4BA4"/>
<path d="M617.246 410.235C604.332 464.673 573.53 513.254 529.732 548.267C485.933 583.279 431.648 602.715 375.494 603.491L374.815 554.754C420.065 554.129 463.809 538.467 499.102 510.253C534.395 482.04 559.215 442.893 569.622 399.027L617.246 410.235Z" fill="#BA9FE7"/>
<path d="M127.272 412.415C118.217 375.145 117.849 336.275 126.196 298.787C134.543 261.299 151.383 226.19 175.423 196.154C199.463 166.119 230.065 141.956 264.879 125.521C299.693 109.085 337.794 100.813 376.257 101.341L375.437 149.741C344.385 149.315 313.626 155.993 285.521 169.262C257.415 182.53 232.71 202.037 213.303 226.284C193.895 250.532 180.3 278.876 173.561 309.14C166.823 339.404 167.12 370.785 174.43 400.872L127.272 412.415Z" fill="#BA9FE7"/>
<path d="M374.761 100.887C413.096 101.162 450.826 110.211 485.066 127.342C519.306 144.473 549.148 169.232 572.309 199.726C595.47 230.219 611.336 265.639 618.694 303.275C626.051 340.911 624.706 379.766 614.759 416.868L567.7 404.393C575.718 374.483 576.803 343.16 570.871 312.82C564.94 282.48 552.149 253.927 533.478 229.345C514.807 204.762 490.75 184.803 463.148 170.992C435.545 157.182 405.129 149.887 374.226 149.666L374.761 100.887Z" fill="#6C4BA4"/>
<path d="M410.8 420.515L362.8 337.115H336.7V420.515H302.5V212.015H374.5C390.5 212.015 404 214.815 415 220.415C426.2 226.015 434.5 233.515 439.9 242.915C445.5 252.315 448.3 262.815 448.3 274.415C448.3 288.015 444.3 300.415 436.3 311.615C428.5 322.615 416.4 330.115 400 334.115L451.6 420.515H410.8ZM336.7 309.815H374.5C387.3 309.815 396.9 306.615 403.3 300.215C409.9 293.815 413.2 285.215 413.2 274.415C413.2 263.615 410 255.215 403.6 249.215C397.2 243.015 387.5 239.915 374.5 239.915H336.7V309.815Z" fill="#6C4BA4"/>
<rect x="497" y="393" width="311" height="28" fill="#6C4BA4"/>
<rect y="392.5" width="311" height="28" fill="#6C4BA4"/>
<path d="M460 510L401.822 404.121L441.999 404.121L457.5 431L464 442.5L497 393L521.699 406.47L490.5 458L460 510Z" fill="#6C4BA4"/>
</svg>
